<?xml version="1.0" encoding="UTF-8"?><svg id="a" xmlns="http://www.w3.org/2000/svg" xmlns:xlink="http://www.w3.org/1999/xlink" viewBox="0 0 32 32"><defs><style>.c{fill:#fff;}.d{fill:#ffebff;}.e{fill:#fff3ff;}.f{fill:url(#b);}</style><linearGradient id="b" x1="1.46" y1="1.46" x2="30.54" y2="30.54" gradientUnits="userSpaceOnUse"><stop offset="0" stop-color="#721378"/><stop offset="1" stop-color="#8d235c"/></linearGradient></defs><rect class="f" width="32" height="32" rx="5" ry="5"/><path class="c" d="M15.66,7.73l-6.99,3.78c-.63.35-.63.9,0,1.25l6.99,3.78c.19.1.49.1.67,0l6.99-3.78c.63-.35.63-.9,0-1.25l-6.99-3.78c-.19-.1-.49-.1-.67,0Z"/><path class="e" d="M23.33,15.38l-1.15-.62-5.84,3.16c-.19.1-.49.1-.67,0l-5.84-3.16-1.15.62c-.63.35-.63.9,0,1.25l6.99,3.78c.19.1.49.1.67,0l6.99-3.78c.63-.35.63-.9,0-1.25Z"/><path class="d" d="M23.33,19.25l-1.15-.62-5.84,3.16c-.19.1-.49.1-.67,0l-5.84-3.16-1.15.62c-.63.35-.63.9,0,1.25l6.99,3.78c.19.1.49.1.67,0l6.99-3.78c.63-.35.63-.9,0-1.25Z"/></svg>