<?xml version="1.0" encoding="UTF-8"?><svg id="Calque_1" xmlns="http://www.w3.org/2000/svg" viewBox="0 0 74.22 77.44"><path d="M35.51.36L2.25,18.35c-3,1.63-3,4.28,0,5.91l33.26,18c.88.48,2.32.48,3.2,0l33.26-18c3-1.63,3-4.28,0-5.91L38.71.36c-.88-.48-2.32-.48-3.2,0Z"/><path d="M71.97,35.76l-5.49-2.97-27.77,15.03c-.88.48-2.32.48-3.2,0l-27.77-15.03-5.49,2.97c-3,1.63-3,4.28,0,5.91l33.26,18c.88.48,2.32.48,3.2,0l33.26-18c3-1.63,3-4.28,0-5.91Z"/><path d="M71.97,53.17l-5.49-2.97-27.77,15.03c-.88.48-2.32.48-3.2,0l-27.77-15.03-5.49,2.97c-3,1.63-3,4.28,0,5.91l33.26,18c.88.48,2.32.48,3.2,0l33.26-18c3-1.63,3-4.28,0-5.91Z"/></svg>