<?xml version="1.0" encoding="UTF-8"?><svg id="a" xmlns="http://www.w3.org/2000/svg" viewBox="0 0 356.58 73.41"><g id="b"><path d="M32.82.33L2.08,16.96c-2.78,1.5-2.78,3.96,0,5.46l30.73,16.63c.81.44,2.14.44,2.96,0l30.73-16.63c2.78-1.5,2.78-3.96,0-5.46L35.78.33c-.81-.44-2.14-.44-2.96,0h0Z"/><path d="M66.52,33.98l-5.07-2.75-25.66,13.89c-.81.44-2.14.44-2.96,0L7.17,31.23l-5.07,2.75c-2.78,1.5-2.78,3.96,0,5.46l30.73,16.63c.81.44,2.14.44,2.96,0l30.73-16.63c2.78-1.5,2.78-3.96,0-5.46Z"/><path d="M66.52,50.99l-5.07-2.75-25.66,13.89c-.81.44-2.14.44-2.96,0l-25.66-13.89-5.07,2.75c-2.78,1.5-2.78,3.96,0,5.46l30.73,16.63c.81.44,2.14.44,2.96,0l30.73-16.63c2.78-1.5,2.78-3.96,0-5.46Z"/><path d="M132.15,27.44c3.43,3.63,5.15,8.12,5.15,13.46s-1.72,9.83-5.15,13.46c-3.43,3.56-7.72,5.35-12.8,5.35-4.55,0-8.25-1.78-11.22-5.35v4.49h-9.04V8.69h9.31v18.35c2.97-3.37,6.6-5.08,10.96-5.08,5.08,0,9.37,1.85,12.8,5.48h0ZM110.77,48.22c1.85,1.98,4.22,2.97,7.13,2.97s5.28-.99,7.13-2.97c1.85-2.05,2.77-4.49,2.77-7.39s-.92-5.35-2.77-7.33c-1.85-1.98-4.22-2.97-7.13-2.97s-5.28.99-7.13,3.04c-1.85,1.98-2.77,4.42-2.77,7.26s.92,5.35,2.77,7.39Z"/><path d="M143.37,43.67v-20.79h9.31v20.79c0,4.55,2.71,7.52,7.19,7.52s7.19-2.97,7.19-7.52v-20.79h9.31v20.79c0,10.1-6.2,16.04-16.5,16.04s-16.5-5.94-16.5-16.04Z"/><path d="M184.37,58.85V22.88h9.11v5.02c1.91-3.5,6.2-6.01,11.28-6.01,3.89,0,7.26,1.32,9.97,3.89,2.71,2.57,4.09,6.27,4.09,11.09v21.98h-9.31v-19.47c0-5.74-3.04-8.91-7.59-8.91-4.95,0-8.25,3.76-8.25,9.11v19.27h-9.31,0Z"/><path d="M253.65,8.69h9.3v50.16h-9.11v-4.42c-2.9,3.5-6.6,5.28-11.15,5.28-5.08,0-9.37-1.78-12.74-5.35-3.37-3.63-5.08-8.12-5.08-13.53s1.72-9.83,5.08-13.46c3.43-3.63,7.66-5.41,12.74-5.41,4.36,0,7.98,1.72,10.95,5.08V8.69h.01ZM251.34,33.51c-1.85-2.05-4.22-3.04-7.19-3.04s-5.35.99-7.26,3.04c-1.85,1.98-2.77,4.42-2.77,7.33s.92,5.41,2.77,7.46c1.91,1.98,4.29,2.97,7.26,2.97s5.35-.99,7.19-2.97c1.85-2.04,2.77-4.49,2.77-7.46s-.92-5.35-2.77-7.33Z"/><path d="M280.71,58.85h-9.31V8.69h9.31v50.16Z"/><path d="M323.68,44.13h-26.99c1.32,5.08,4.82,7.66,10.49,7.66,3.89,0,8.51-1.52,11.62-3.63l3.7,6.53c-4.55,3.3-9.77,4.95-15.71,4.95-6.34,0-11.15-1.85-14.52-5.48s-5.02-8.12-5.02-13.33c0-5.48,1.72-9.96,5.21-13.53,3.5-3.56,7.99-5.35,13.53-5.35,5.21,0,9.57,1.65,12.93,4.88,3.37,3.23,5.08,7.59,5.08,13.2,0,1.25-.13,2.64-.33,4.09h0ZM296.7,37.2h18.28c-.86-4.69-4.22-7.52-8.98-7.52s-8.18,2.84-9.31,7.52h.01Z"/><path d="M327.39,52.84l4.95-5.87c2.57,3.1,6.34,5.02,9.97,5.02,2.84,0,4.95-1.45,4.95-3.5,0-1.25-.86-2.31-2.57-3.1-.59-.26-1.98-.79-4.29-1.65s-3.83-1.52-4.62-1.91c-4.16-1.98-6.2-5.08-6.2-9.31,0-3.17,1.25-5.74,3.7-7.79,2.44-2.05,5.74-3.04,9.77-3.04,5.08,0,9.31,1.72,12.61,5.15l-4.62,6c-2.51-2.38-5.28-3.56-8.25-3.56-2.44,0-4.09,1.39-4.09,3.04,0,1.52,1.06,2.57,3.17,3.3,4.75,1.78,7.66,2.97,8.64,3.5,4.03,2.11,6.07,5.15,6.07,9.11,0,3.37-1.32,6.14-3.96,8.32-2.57,2.18-6.07,3.23-10.36,3.23-6.27,0-11.22-2.31-14.85-6.93h-.02Z"/></g></svg>