<?xml version="1.0" encoding="UTF-8"?><svg id="a" xmlns="http://www.w3.org/2000/svg" viewBox="0 0 32 32"><circle cx="16" cy="16" r="16" fill="#1D1D21"/><path d="M15.6,6.17l-8.31,4.49c-.75.41-.75,1.07,0,1.48l8.31,4.49c.22.12.58.12.8,0l8.31-4.49c.75-.41.75-1.07,0-1.48l-8.31-4.49c-.22-.12-.58-.12-.8,0Z" fill="#414142"/><path d="M24.71,15.26l-1.37-.74-6.94,3.75c-.22.12-.58.12-.8,0l-6.94-3.75-1.37.74c-.75.41-.75,1.07,0,1.48l8.31,4.49c.22.12.58.12.8,0l8.31-4.49c.75-.41.75-1.07,0-1.48Z" fill="#414142"/><path d="M24.71,19.86l-1.37-.74-6.94,3.75c-.22.12-.58.12-.8,0l-6.94-3.75-1.37.74c-.75.41-.75,1.07,0,1.48l8.31,4.49c.22.12.58.12.8,0l8.31-4.49c.75-.41.75-1.07,0-1.48Z" fill="#414142"/></svg>