<svg id="a" xmlns="http://www.w3.org/2000/svg" viewBox="0 0 32 32"><path d="M16,0C7.16,0,0,7.16,0,16s7.16,16,16,16,16-7.16,16-16S24.84,0,16,0ZM24.71,21.34l-8.31,4.49c-.22.12-.58.12-.8,0l-8.31-4.49c-.75-.41-.75-1.07,0-1.48l1.37-.74,6.94,3.75c.22.12.58.12.8,0l6.94-3.75,1.37.74c.75.41.75,1.07,0,1.48ZM24.71,16.74l-8.31,4.49c-.22.12-.58.12-.8,0l-8.31-4.49c-.75-.41-.75-1.07,0-1.48l1.37-.74,6.94,3.75c.22.12.58.12.8,0l6.94-3.75,1.37.74c.75.41.75,1.07,0,1.48ZM24.71,12.14l-8.31,4.49c-.22.12-.58.12-.8,0l-8.31-4.49c-.75-.41-.75-1.07,0-1.48l8.31-4.49c.22-.12.58-.12.8,0l8.31,4.49c.75.41.75,1.07,0,1.48Z"/></svg>