<?xml version="1.0" encoding="UTF-8"?><svg id="uuid-d72852fe-ae68-46f0-aa80-f682a76be257" xmlns="http://www.w3.org/2000/svg" xmlns:xlink="http://www.w3.org/1999/xlink" viewBox="0 0 128 128"><defs><style>.uuid-5e652c9d-cd0c-44e8-a4b6-bb4c200553af{fill:#fff;}.uuid-e2b3f7d4-9692-4078-ad90-95397d396adb{clip-path:url(#uuid-e5335739-cbc6-41b2-82d3-6b65a59b5384);}.uuid-dbe5d849-356b-4882-8119-a2376b265697{fill:none;}.uuid-567bc12c-1fd1-40ca-8b1b-2166db010473{fill:#8345e6;}</style><clipPath id="uuid-e5335739-cbc6-41b2-82d3-6b65a59b5384"><rect class="uuid-dbe5d849-356b-4882-8119-a2376b265697" x="21.59" y="27.67" width="83.9" height="73.51"/></clipPath></defs><path class="uuid-567bc12c-1fd1-40ca-8b1b-2166db010473" d="m63.97,0h0c35.36,0,64.03,28.66,64.03,64.01h0c0,35.36-28.66,63.99-64,63.99h0C28.64,128,0,99.34,0,64.01H0C-.03,28.66,28.64,0,63.97,0Z"/><g class="uuid-e2b3f7d4-9692-4078-ad90-95397d396adb"><path class="uuid-5e652c9d-cd0c-44e8-a4b6-bb4c200553af" d="m84.96,50.06c-1.54-.88-3.5-.88-5.24,0l-12.24,7.25-8.31,4.61-12.01,7.23c-1.54.88-3.5.88-5.24,0l-9.39-5.72c-1.54-.88-2.62-2.64-2.62-4.61v-10.98c0-1.76.88-3.5,2.62-4.61l9.39-5.49c1.54-.88,3.5-.88,5.24,0l9.39,5.72c1.54.88,2.62,2.64,2.62,4.61v7.25l8.31-4.83v-7.45c0-1.76-.88-3.5-2.62-4.61l-17.48-10.32c-1.54-.88-3.5-.88-5.24,0l-17.91,10.55c-1.74.88-2.62,2.64-2.62,4.38v20.62c0,1.76.88,3.5,2.62,4.61l17.71,10.32c1.54.88,3.5.88,5.24,0l12.01-7.03,8.31-4.83,12.01-7.03c1.54-.88,3.5-.88,5.24,0l9.39,5.49c1.54.88,2.62,2.64,2.62,4.61v10.98c0,1.76-.88,3.5-2.62,4.61l-9.17,5.49c-1.54.88-3.5.88-5.24,0l-9.42-5.49c-1.54-.88-2.62-2.64-2.62-4.61v-7.03l-8.31,4.83v7.25c0,1.76.88,3.5,2.62,4.61l17.71,10.32c1.54.88,3.5.88,5.24,0l17.71-10.32c1.54-.88,2.62-2.64,2.62-4.61v-20.85c0-1.76-.88-3.5-2.62-4.61l-17.71-10.32h.01Z"/></g></svg>