<?xml version="1.0" encoding="UTF-8"?><svg id="uuid-5517b4ba-1dc7-4e94-8921-eca13364db86" xmlns="http://www.w3.org/2000/svg" viewBox="0 0 128 128"><defs><style>.uuid-4a12b3d1-bb56-43fb-bb32-8e223595ed73{fill:#fff;}.uuid-7a80375d-f94b-45b5-95c1-fb67a37a23a1{fill:#bfbfc1;}</style></defs><path class="uuid-7a80375d-f94b-45b5-95c1-fb67a37a23a1" d="m63.97,0h0c35.36,0,64.03,28.66,64.03,64.01h0c0,35.36-28.66,63.99-64,63.99h0C28.64,128,0,99.34,0,64.01H0C-.03,28.66,28.64,0,63.97,0Z"/><path class="uuid-4a12b3d1-bb56-43fb-bb32-8e223595ed73" d="m105.95,64.2v15.94c0,2.64-.6,5.14-1.99,7.39-1.24,2.02-2.93,3.58-5.01,4.76-4.15,2.36-8.28,4.77-12.42,7.16-3.33,1.92-6.66,3.84-9.98,5.76-2.12,1.22-4.23,2.48-6.37,3.66-1.53.84-3.16,1.35-4.95,1.25-.89-.05-1.78-.02-2.67,0-1.87.03-3.58-.57-5.17-1.47-3.83-2.17-7.63-4.39-11.43-6.6-2.92-1.69-5.83-3.4-8.75-5.09-2.57-1.48-5.15-2.94-7.71-4.42-2.9-1.68-5.15-3.95-6.42-7.1-.49-1.21-.88-2.46-.89-3.77-.06-6.55-.09-13.1-.11-19.66-.01-4.69,0-9.38.02-14.08.02-4.59,1.8-8.36,5.47-11.12,1.47-1.1,3.1-1.99,4.69-2.92,3.82-2.24,7.66-4.45,11.5-6.66,1.83-1.06,3.68-2.09,5.52-3.14,2.33-1.35,4.63-2.75,6.99-4.04,1.28-.7,2.64-1.28,4.01-1.79.72-.27,1.54-.31,2.31-.35.97-.05,1.94.01,2.91,0,1.38-.02,2.69.31,3.89.93,2.07,1.07,4.09,2.22,6.12,3.37,2.17,1.23,4.33,2.48,6.49,3.73,2.86,1.66,5.71,3.34,8.58,5,2.33,1.35,4.68,2.65,7.01,4.01,1.9,1.1,3.76,2.26,5.21,3.96,1.52,1.78,2.44,3.85,2.87,6.13.2,1.06.3,2.16.3,3.24.03,5.31.01,10.63.01,15.94l-.03-.02Zm-77.3-.25c.12,0,.16,0,.18,0,.09-.05.18-.11.27-.17,2.8-1.92,5.86-3.01,9.29-3.01h49.68c.83,0,1.66-.06,2.48-.17,3.66-.52,6.28-2.49,7.93-5.78.47-.93.78-1.91.8-2.95.02-1.36,0-2.72,0-4.07,0-.41.03-.82-.03-1.22-.36-2.22-1.53-3.87-3.48-4.98-2.13-1.22-4.24-2.46-6.36-3.69-2.96-1.71-5.92-3.42-8.87-5.13-2.98-1.72-5.97-3.46-8.96-5.17-1.67-.95-3.31-1.96-5.04-2.78-1.87-.88-3.82-.76-5.63.23-2.23,1.22-4.41,2.53-6.61,3.8-3.12,1.8-6.23,3.6-9.35,5.4-4.04,2.33-8.07,4.66-12.11,6.96-1.2.68-2.29,1.45-3.07,2.62-.94,1.42-1.12,3-1.12,4.64,0,4.95-.01,9.89-.02,14.84,0,.21.02.41.03.63h0Zm35.51,3.38h-25.2c-.51,0-1.03.02-1.54.08-2.61.32-4.76,1.5-6.45,3.5-1.31,1.54-2.09,3.34-2.24,5.35-.11,1.49-.06,2.99-.02,4.49.07,2.47,1.25,4.33,3.34,5.57,2.92,1.74,5.89,3.41,8.83,5.11,2.13,1.24,4.26,2.49,6.39,3.72,1.86,1.07,3.73,2.13,5.59,3.19,2.61,1.5,5.2,3.02,7.83,4.49,2.23,1.24,4.5,1.21,6.7-.06,5.41-3.09,10.8-6.22,16.19-9.33,4.09-2.36,8.18-4.7,12.25-7.08,2.29-1.34,3.45-3.34,3.45-6.02,0-5.3.04-10.59.05-15.89,0-.1-.05-.24-.12-.3-.04-.04-.2.02-.28.08-.21.15-.4.33-.61.47-2.81,1.77-5.86,2.64-9.19,2.63-8.33-.02-16.65,0-24.98,0h.01Z"/><path class="uuid-4a12b3d1-bb56-43fb-bb32-8e223595ed73" d="m54.95,45.81h-6.63v9.22c0,.42-.11.58-.56.58-1.85-.02-3.69-.02-5.54,0-.39,0-.55-.12-.54-.52.03-3.3-.08-6.6.13-9.89.16-2.53,1.62-4.38,3.96-5.43,1.05-.47,2.18-.61,3.32-.61,1.79,0,3.57,0,5.36,0,1.5,0,2.92.35,4.16,1.22,1.77,1.24,2.8,2.96,2.86,5.11.09,3.21.04,6.41.06,9.62,0,.38-.15.5-.52.49-1.86,0-3.72,0-5.58,0-.38,0-.49-.12-.49-.5,0-2.89,0-5.78,0-8.67v-.63h.01Z"/><path class="uuid-4a12b3d1-bb56-43fb-bb32-8e223595ed73" d="m88.05,50.41c0,1.54-.01,3.09,0,4.63,0,.45-.15.57-.58.57-1.83-.02-3.66-.02-5.49,0-.39,0-.53-.11-.52-.51.01-2.91,0-5.81,0-8.72,0-.39-.2-.59-.61-.59-1.85,0-3.69,0-5.54,0-.43,0-.55.16-.54.56.01,2.65,0,5.3.01,7.94,0,.27.05.54.04.81,0,.32-.15.51-.5.51h-5.72c-.36,0-.42-.2-.42-.5v-4.63c0-1.53,0-3.06.02-4.58.04-3.33,2.43-6.1,5.73-6.62.46-.07.93-.1,1.4-.11,1.86,0,3.72-.02,5.58,0,1.24,0,2.44.22,3.54.83,1.99,1.11,3.24,2.79,3.45,5.07.16,1.77.12,3.56.17,5.35h-.04.02Z"/><path class="uuid-4a12b3d1-bb56-43fb-bb32-8e223595ed73" d="m48.33,82.19h6.63v-9.24c0-.45.15-.56.58-.55,1.86.03,3.72.05,5.58.04.46,0,.43.27.43.56,0,2.19,0,4.39,0,6.58,0,1.18.03,2.37-.12,3.53-.32,2.54-1.74,4.28-4.1,5.27-.85.36-1.74.47-2.66.47-2,0-4-.03-5.99,0-3.22.06-6.29-2.29-6.84-5.76-.12-.77-.11-1.57-.12-2.35,0-2.56,0-5.11,0-7.67,0-.65.02-.68.7-.67,1.32.02,2.63.05,3.95.06.45,0,.9-.05,1.36-.06.63-.02.63-.01.63.61v9.18h-.02Z"/><path class="uuid-4a12b3d1-bb56-43fb-bb32-8e223595ed73" d="m81.48,82.21v-.68c-.01-2.83-.03-5.66-.04-8.49,0-.62.05-.65.63-.64,1.81.03,3.63.06,5.44.04.44,0,.55.14.55.54-.02,3.01,0,6.02-.05,9.03-.03,2-.7,3.77-2.21,5.14-1.2,1.09-2.64,1.66-4.25,1.69-2.24.04-4.48-.01-6.72.02-2.68.03-5.38-2.05-6.15-4.39-.26-.81-.43-1.68-.45-2.52-.06-2.92-.05-5.84-.05-8.76,0-.76.04-.78.8-.78,1.69,0,3.39.01,5.08,0,.71,0,.79.03.79.75,0,2.03-.03,4.05-.05,6.08,0,.85,0,1.69-.02,2.54,0,.25.01.45.35.45h6.35v-.02Z"/></svg>