<?xml version="1.0" encoding="UTF-8"?><svg id="uuid-a9e1b2e9-6012-4e67-9cc7-5a2c0841ffed" xmlns="http://www.w3.org/2000/svg" xmlns:xlink="http://www.w3.org/1999/xlink" viewBox="0 0 128 128"><defs><style>.uuid-ae6a96f7-2224-4755-99e9-dff6ab6be9bd{fill:#fff;}.uuid-814be592-afe6-44c3-8400-53c071d4b21e{fill:url(#uuid-a431b48f-5070-4b5e-893c-5f4a1ce3b24d);}</style><linearGradient id="uuid-a431b48f-5070-4b5e-893c-5f4a1ce3b24d" x1="4.23" y1="86.94" x2="123.76" y2="41.06" gradientUnits="userSpaceOnUse"><stop offset="0" stop-color="#14317c"/><stop offset="1" stop-color="#8e0e72"/></linearGradient></defs><path class="uuid-814be592-afe6-44c3-8400-53c071d4b21e" d="m63.97,0h0c35.36,0,64.03,28.66,64.03,64.01h0c0,35.36-28.66,63.99-64,63.99h0C28.64,128,0,99.34,0,64.01H0C-.03,28.66,28.64,0,63.97,0Z"/><path class="uuid-ae6a96f7-2224-4755-99e9-dff6ab6be9bd" d="m46.76,41.54v12.24h22.79c-2.08,1.58-3.75,2.89-5.46,4.15-5.42,4.01-10.86,7.98-16.24,12.04-.57.43-1.04,1.36-1.05,2.07-.09,4.46-.05,8.93-.05,13.4v1.48c-7.58-7.58-15.15-15.15-22.68-22.68,7.29-7.29,14.84-14.85,22.69-22.7h0Z"/><path class="uuid-ae6a96f7-2224-4755-99e9-dff6ab6be9bd" d="m81.52,87.08v-11.85h-22.24c-.06-.12-.11-.23-.17-.35,2.01-1.5,4-3.02,6.02-4.51,5.06-3.72,10.11-7.45,15.21-11.12.9-.65,1.17-1.35,1.16-2.42-.06-4.96-.02-9.93-.02-14.62,7.49,7.49,15.05,15.05,22.44,22.44-7.21,7.21-14.77,14.78-22.4,22.42h0Z"/></svg>