<?xml version="1.0" encoding="UTF-8"?><svg id="uuid-8b9d1e8a-a39b-4c41-9a46-521062548761" xmlns="http://www.w3.org/2000/svg" viewBox="0 0 128 128"><defs><style>.uuid-b4c37fe0-0309-4ec5-bbec-6de6c6db6c9d{fill:#fff;}.uuid-54466464-d05d-416b-91ea-9c1a53868503{fill:#bfbfc1;}.uuid-36c3910b-a4d4-4672-9eb7-d64ccacc8cf8{fill:#848484;}.uuid-d661edf1-aebd-4208-8359-ccbc51f476ad{fill:#dbdbdb;}.uuid-697eb680-fe9f-4abc-860e-49c4e81a8ba0{fill:#e5e5e5;}</style></defs><circle class="uuid-54466464-d05d-416b-91ea-9c1a53868503" cx="64" cy="64" r="64"/><g id="uuid-59723836-92e5-437a-93d5-0be788af18e2"><g id="uuid-b7a010ce-5a04-4757-ac9a-1874fb723f53"><g id="uuid-f207614a-8d70-4f1c-801a-941714db9fc0"><path class="uuid-36c3910b-a4d4-4672-9eb7-d64ccacc8cf8" d="m74.76,60.44l7-11.88,18.92,29.44v5.64l-.04-38.88c-.04-.96-.56-1.8-1.36-2.32l-34.04-19.56c-.8-.4-1.8-.4-2.6,0-.12.04-.2.12-.32.16l-.12.08-33.04,19.12h-.12s-.32.24-.48.36c-.64.44-1.04,1.12-1.16,1.84,0,.12,0,.24-.04.36v31.68l17.64-27.28c2.2-3.6,7.04-4.8,11.52-4.72l5.28.12-31,49.72,3.64,2.12,31.36-51.76h13.88l-31.28,53.04,13.04,7.52,1.56.88c.64.28,1.44.28,2.12.04l34.52-20-6.6,3.84-18.24-29.52s-.04-.04-.04-.04Zm2.68,38.52l-13.16-20.68,8.04-13.64,17.28,27.28-12.16,7.04Z"/><polygon class="uuid-697eb680-fe9f-4abc-860e-49c4e81a8ba0" points="64.28 78.32 77.44 99 89.6 91.92 72.32 64.68 64.28 78.32"/><path class="uuid-697eb680-fe9f-4abc-860e-49c4e81a8ba0" d="m100.68,83.64v-5.64l-18.92-29.44-7,11.88,18.24,29.52,6.6-3.84c.64-.52,1.04-1.28,1.08-2.12v-.36Z"/><path class="uuid-b4c37fe0-0309-4ec5-bbec-6de6c6db6c9d" d="m21.48,88.96l9.32,5.36,31-49.72-5.28-.12c-4.48-.08-9.32,1.12-11.52,4.72l-17.6,27.28-5.92,9.08s0,3.4,0,3.4Z"/><polygon class="uuid-b4c37fe0-0309-4ec5-bbec-6de6c6db6c9d" points="79.68 44.64 65.84 44.68 34.44 96.44 45.4 102.76 48.4 97.68 79.68 44.64"/><path class="uuid-d661edf1-aebd-4208-8359-ccbc51f476ad" d="m106.52,44.56c-.12-2.92-1.68-5.56-4.16-7.12l-34.48-19.84c-2.44-1.24-5.48-1.24-7.92,0-.28.16-33.52,19.44-33.52,19.44-.48.24-.92.48-1.32.8-2.2,1.56-3.52,4-3.68,6.72v41.04l5.92-9.08v-32.04c.12-.76.56-1.4,1.16-1.84.16-.12,33.96-19.68,34.08-19.72.8-.4,1.8-.4,2.6,0l34.04,19.56c.8.52,1.32,1.4,1.36,2.32v39.24c-.04.84-.36,1.6-1,2.12l-6.6,3.84-3.4,1.96-12.16,7.04-12.32,7.16c-.68.24-1.44.24-2.12-.04l-14.6-8.4-3,5.04,13.12,7.56c.44.24.84.48,1.12.64.48.28.84.44.96.52.92.44,2.28.72,3.48.72,1.12,0,2.2-.2,3.2-.6l35.84-20.76c2.04-1.6,3.28-4,3.36-6.6v-39.68s.04,0,.04,0Z"/></g></g></g></svg>