<?xml version="1.0" encoding="UTF-8"?><svg id="a" xmlns="http://www.w3.org/2000/svg" viewBox="0 0 128 128"><defs><style>.b{fill:#bfbfc1;fill-rule:evenodd;}.b,.c{stroke-width:0px;}.c{fill:#fff;}</style></defs><rect class="c" x="19.38" y="21.15" width="88.12" height="88.12"/><path class="b" d="m128,64c0,35.35-28.65,64-64,64S0,99.35,0,64,28.65,0,64,0s64,28.65,64,64Zm-82.14,25.47h-12.42c-2.61,0-3.9,0-4.69-.5-.85-.55-1.37-1.46-1.43-2.47-.05-.93.6-2.06,1.89-4.32l30.67-54.06c1.3-2.3,1.97-3.44,2.8-3.87.9-.46,1.97-.46,2.86,0,.83.42,1.49,1.57,2.8,3.87l6.3,11.01.03.06c1.41,2.46,2.12,3.71,2.44,5.02.35,1.43.35,2.94,0,4.37-.31,1.32-1.02,2.58-2.45,5.08l-16.11,28.48-.04.07c-1.42,2.48-2.14,3.74-3.13,4.69-1.08,1.04-2.39,1.79-3.82,2.22-1.3.36-2.77.36-5.69.36Zm31.37,0h17.8c2.63,0,3.95,0,4.73-.52.85-.55,1.38-1.48,1.43-2.48.05-.9-.59-1.99-1.82-4.12-.04-.07-.09-.15-.13-.22l-8.91-15.25-.1-.17c-1.25-2.12-1.89-3.19-2.7-3.6-.9-.46-1.95-.46-2.85,0-.82.42-1.48,1.54-2.78,3.79l-8.88,15.25-.03.05c-1.3,2.24-1.95,3.37-1.9,4.29.06,1.01.58,1.93,1.43,2.48.77.5,2.09.5,4.72.5Z"/></svg>