<?xml version="1.0" encoding="UTF-8"?><svg id="uuid-75d5cea2-69c0-455a-ba6b-1e50526d3d3c" xmlns="http://www.w3.org/2000/svg" xmlns:xlink="http://www.w3.org/1999/xlink" viewBox="0 0 128 128"><defs><style>.uuid-4bc6312c-1d41-4252-add7-3d230a0f71e7{fill:#fff;}.uuid-896d2059-c33f-416b-8a0e-f3eb61abe66c{clip-path:url(#uuid-b245d3dd-c8f3-4e97-85b3-a1bafd2cf555);}.uuid-011441df-c11b-48de-9409-72ae34d5c9e9{fill:none;}.uuid-31845ad8-9908-495a-bc19-a83a40c9664a{fill:#b5b5b5;}</style><clipPath id="uuid-b245d3dd-c8f3-4e97-85b3-a1bafd2cf555"><rect class="uuid-011441df-c11b-48de-9409-72ae34d5c9e9" x="21.59" y="27.67" width="83.9" height="73.51"/></clipPath></defs><path class="uuid-31845ad8-9908-495a-bc19-a83a40c9664a" d="m63.97,0h0c35.36,0,64.03,28.66,64.03,64.01h0c0,35.36-28.66,63.99-64,63.99h0C28.64,128,0,99.34,0,64.01H0C-.03,28.66,28.64,0,63.97,0Z"/><g class="uuid-896d2059-c33f-416b-8a0e-f3eb61abe66c"><path class="uuid-4bc6312c-1d41-4252-add7-3d230a0f71e7" d="m84.96,50.06c-1.54-.88-3.5-.88-5.24,0l-12.24,7.25-8.31,4.61-12.01,7.23c-1.54.88-3.5.88-5.24,0l-9.39-5.72c-1.54-.88-2.62-2.64-2.62-4.61v-10.98c0-1.76.88-3.5,2.62-4.61l9.39-5.49c1.54-.88,3.5-.88,5.24,0l9.39,5.72c1.54.88,2.62,2.64,2.62,4.61v7.25l8.31-4.83v-7.45c0-1.76-.88-3.5-2.62-4.61l-17.48-10.32c-1.54-.88-3.5-.88-5.24,0l-17.91,10.55c-1.74.88-2.62,2.64-2.62,4.38v20.62c0,1.76.88,3.5,2.62,4.61l17.71,10.32c1.54.88,3.5.88,5.24,0l12.01-7.03,8.31-4.83,12.01-7.03c1.54-.88,3.5-.88,5.24,0l9.39,5.49c1.54.88,2.62,2.64,2.62,4.61v10.98c0,1.76-.88,3.5-2.62,4.61l-9.17,5.49c-1.54.88-3.5.88-5.24,0l-9.42-5.49c-1.54-.88-2.62-2.64-2.62-4.61v-7.03l-8.31,4.83v7.25c0,1.76.88,3.5,2.62,4.61l17.71,10.32c1.54.88,3.5.88,5.24,0l17.71-10.32c1.54-.88,2.62-2.64,2.62-4.61v-20.85c0-1.76-.88-3.5-2.62-4.61l-17.71-10.32Z"/></g></svg>